<?xml version="1.0" standalone="no"?><!DOCTYPE svg PUBLIC "-//W3C//DTD SVG 1.1//EN" "http://www.w3.org/Graphics/SVG/1.1/DTD/svg11.dtd"><svg t="1683365283474" class="icon" viewBox="0 0 1024 1024" version="1.1" xmlns="http://www.w3.org/2000/svg" p-id="1052" xmlns:xlink="http://www.w3.org/1999/xlink" width="200" height="200"><path d="M515.118545 94.72l334.615273 112.872727a31.325091 31.325091 0 0 1 21.317818 29.696v366.219637c0 114.408727-118.039273 197.445818-350.114909 329.216a31.325091 31.325091 0 0 1-30.952727 0C257.768727 801.28 139.636364 718.196364 139.636364 603.554909V237.288727c0-13.451636 8.564364-25.413818 21.317818-29.696l334.103273-112.872727a31.325091 31.325091 0 0 1 20.06109 0z m147.549091 223.557818h-294.632727a33.233455 33.233455 0 1 0 0 66.466909h114.036364v219.415273H327.959273a33.233455 33.233455 0 1 0 0 66.513455H702.836364a33.233455 33.233455 0 1 0 0-66.56h-154.251637V384.791273h114.129455a33.233455 33.233455 0 0 0 0-66.466909z" fill="#3B8DFF" p-id="1053"></path></svg>