<?xml version="1.0" standalone="no"?><!DOCTYPE svg PUBLIC "-//W3C//DTD SVG 1.1//EN" "http://www.w3.org/Graphics/SVG/1.1/DTD/svg11.dtd"><svg t="1681713109130" class="icon" viewBox="0 0 1024 1024" version="1.1" xmlns="http://www.w3.org/2000/svg" p-id="4041" xmlns:xlink="http://www.w3.org/1999/xlink" width="200" height="200"><path d="M512 168c-112.416 0-204 91.968-204 206S399.584 580 512 580s204-91.968 204-206S624.416 168 512 168zM244 374C244 225.136 363.728 104 512 104s268 121.136 268 270S660.272 644 512 644s-268-121.136-268-270z" p-id="4042"></path><path d="M612.128 420.352a32 32 0 0 1 11.52 43.776 128.48 128.48 0 0 1-47.28 46.8 129.76 129.76 0 0 1-128.736 0 128.496 128.496 0 0 1-47.28-46.8 32 32 0 0 1 55.296-32.256 64.512 64.512 0 0 0 23.728 23.488 65.776 65.776 0 0 0 65.248 0 64.496 64.496 0 0 0 23.728-23.488 32 32 0 0 1 43.776-11.52zM600.304 583.2a32 32 0 0 1 41.808-17.328 340 340 0 0 1 110.304 73.712l-22.624 22.624 22.624-22.624a340 340 0 0 1 92.272 170.272C857.12 868.928 806.688 912 756 912h-488c-50.688 0-101.136-43.072-88.688-102.144a340.048 340.048 0 0 1 92.272-170.272l22.624 22.624-22.624-22.624c7.04-7.04 14.352-13.728 21.952-20.096l20.56 24.512-20.56-24.512a340 340 0 0 1 88.352-53.6 32 32 0 0 1 24.48 59.12 276 276 0 0 0-164.432 198.048c-1.296 6.192 0.4 11.632 4.736 16.256 4.64 4.96 12.288 8.688 21.328 8.688h488c9.04 0 16.688-3.728 21.328-8.688 4.32-4.608 6.032-10.08 4.736-16.256a275.808 275.808 0 0 0-74.896-138.224l19.952-19.952-19.952 19.952a275.84 275.84 0 0 0-89.552-59.824 32 32 0 0 1-17.312-41.808z" p-id="4043"></path></svg>