<?xml version="1.0" standalone="no"?><!DOCTYPE svg PUBLIC "-//W3C//DTD SVG 1.1//EN" "http://www.w3.org/Graphics/SVG/1.1/DTD/svg11.dtd"><svg t="1683365307655" class="icon" viewBox="0 0 1024 1024" version="1.1" xmlns="http://www.w3.org/2000/svg" p-id="1191" xmlns:xlink="http://www.w3.org/1999/xlink" width="200" height="200"><path d="M581.7 538c62.1-88.2 46.5-209.3-35.9-278.9-82.4-69.6-204.4-64.7-280.9 11.3-76.4 76.5-81.6 198.7-11.8 281.3 69.8 82.6 191.2 98 279.3 35.4l28.8-20.4 20.5-28.7z m11.2 133.9c-132.2 93.4-313.9 70.2-418.4-53.5-104.6-123.6-97.2-306.6 16.9-421.5 114.7-115 298.4-122.8 422.4-18s146.9 287.3 52.6 419.5l238.4 238.3c17 16.9 14.2 47.1-6.1 67.4-20.3 20.3-50.4 23.1-67.4 6.1L592.9 671.9z m0 0" fill="#3259CE" p-id="1192"></path></svg>