<?xml version="1.0" standalone="no"?><!DOCTYPE svg PUBLIC "-//W3C//DTD SVG 1.1//EN" "http://www.w3.org/Graphics/SVG/1.1/DTD/svg11.dtd"><svg t="1681713097314" class="icon" viewBox="0 0 1024 1024" version="1.1" xmlns="http://www.w3.org/2000/svg" p-id="3899" xmlns:xlink="http://www.w3.org/1999/xlink" width="200" height="200"><path d="M284.384 169.488A94.208 94.208 0 0 1 377.776 88H642.24a94.208 94.208 0 0 1 93.376 81.488h62.176a94.16 94.16 0 0 1 94.224 94.08v263.888a32 32 0 1 1-64 0V263.584c0-16.56-13.472-30.08-30.224-30.08H734.24a94.24 94.24 0 0 1-92.016 73.712H377.76a94.24 94.24 0 0 1-92-73.728h-63.552A30.16 30.16 0 0 0 192 263.568V837.92c0 16.56 13.472 30.096 30.224 30.096H532a32 32 0 1 1 0 64H222.224A94.16 94.16 0 0 1 128 837.92V263.568c0-52.032 42.24-94.08 94.224-94.08h62.176zM377.776 152a30.16 30.16 0 0 0-30.224 30.08v31.04c0 16.56 13.472 30.096 30.24 30.096h264.432a30.16 30.16 0 0 0 30.224-30.08v-31.04c0-16.56-13.472-30.096-30.24-30.096H377.792z m-133.12 263.52a32 32 0 0 1 32-32h462.784a32 32 0 0 1 0 64H276.672a32 32 0 0 1-32-32z m0 155.232a32 32 0 0 1 32-32h217.344a32 32 0 0 1 0 64H276.672a32 32 0 0 1-32-32z m0.688 155.216a32 32 0 0 1 32-32H440a32 32 0 0 1 0 64H277.344a32 32 0 0 1-32-32z" p-id="3900"></path><path d="M724 620a124 124 0 1 0 0 248 124 124 0 0 0 0-248zM536 744c0-103.84 84.16-188 188-188S912 640.16 912 744s-84.16 188-188 188S536 847.84 536 744z" p-id="3901"></path><path d="M724 644a32 32 0 0 1 32 32v68a32 32 0 1 1-64 0v-68a32 32 0 0 1 32-32z" p-id="3902"></path><path d="M824 744a32 32 0 0 1-32 32h-68a32 32 0 1 1 0-64h68a32 32 0 0 1 32 32z" p-id="3903"></path></svg>