<?xml version="1.0" standalone="no"?><!DOCTYPE svg PUBLIC "-//W3C//DTD SVG 1.1//EN" "http://www.w3.org/Graphics/SVG/1.1/DTD/svg11.dtd"><svg t="1683365314003" class="icon" viewBox="0 0 1024 1024" version="1.1" xmlns="http://www.w3.org/2000/svg" p-id="1330" xmlns:xlink="http://www.w3.org/1999/xlink" width="200" height="200"><path d="M549.114767 393.406605l-78.311498 0 0 78.311498 78.311498 0L549.114767 393.406605zM705.795069 393.406605l-78.311498 0 0 78.311498 78.311498 0L705.795069 393.406605zM823.282783 647.965024c-46.981987 0-94.029466-7.804749-140.962335-23.465411-11.812012-3.965308-27.48086 0-39.24273 7.796562l-86.158203 86.174575c-109.574495-54.845064-199.76452-148.817225-258.507354-258.507354l86.166389-86.174575c11.820198-11.704565 15.717968-27.365227 7.8641-39.127097-11.76187-43.133336-19.566618-90.073368-19.566618-137.104474 0-23.523739-15.720014-39.126073-39.177239-39.126073L196.626043 158.431177c-23.51453 0-39.176215 15.602334-39.176215 39.126073 0 368.190319 297.691755 665.824769 665.832955 665.824769 23.465411 0 39.126073-15.717968 39.126073-39.176215l0-137.055355C862.408856 663.626709 846.747171 647.965024 823.282783 647.965024M784.106568 471.71708l78.303312 0 0-78.311498-78.303312 0L784.106568 471.71708z" p-id="1331"></path></svg>